<svg width="32" height="32" viewBox="0 0 32 32" fill="none" xmlns="http://www.w3.org/2000/svg">
<path d="M28 2C28.5304 2 29.0391 2.21071 29.4142 2.58579C29.7893 2.96086 30 3.46957 30 4V20C30 20.5304 29.7893 21.0391 29.4142 21.4142C29.0391 21.7893 28.5304 22 28 22H8.828C7.76722 22.0002 6.74997 22.4218 6 23.172L2 27.172V4C2 3.46957 2.21071 2.96086 2.58579 2.58579C2.96086 2.21071 3.46957 2 4 2H28ZM4 0C2.93913 0 1.92172 0.421427 1.17157 1.17157C0.421427 1.92172 0 2.93913 0 4V29.586C4.20298e-05 29.7839 0.0587852 29.9773 0.168795 30.1418C0.278804 30.3062 0.435134 30.4344 0.617999 30.5099C0.800863 30.5855 1.00204 30.6052 1.19607 30.5664C1.3901 30.5276 1.56826 30.4321 1.708 30.292L7.414 24.586C7.78899 24.2109 8.29761 24.0001 8.828 24H28C29.0609 24 30.0783 23.5786 30.8284 22.8284C31.5786 22.0783 32 21.0609 32 20V4C32 2.93913 31.5786 1.92172 30.8284 1.17157C30.0783 0.421427 29.0609 0 28 0H4Z" fill="#F8F9FA"/>
<path d="M14.132 9.52C13.7424 8.9133 13.1664 8.44943 12.4906 8.19812C11.8148 7.94681 11.0757 7.92163 10.3844 8.12637C9.69303 8.33111 9.08682 8.75471 8.65685 9.3335C8.22688 9.91228 7.99638 10.615 8 11.336C8.00036 11.9331 8.16105 12.5191 8.46528 13.0328C8.76952 13.5466 9.20614 13.9692 9.72952 14.2565C10.2529 14.5439 10.8438 14.6854 11.4406 14.6663C12.0374 14.6472 12.6181 14.4682 13.122 14.148C12.86 14.926 12.372 15.756 11.568 16.588C11.4142 16.7471 11.3299 16.9608 11.3336 17.1821C11.3374 17.4034 11.4289 17.6142 11.588 17.768C11.7471 17.9218 11.9608 18.0061 12.1821 18.0024C12.4034 17.9986 12.6142 17.9071 12.768 17.748C15.74 14.668 15.354 11.32 14.132 9.524V9.52ZM22.132 9.52C21.7424 8.9133 21.1664 8.44943 20.4906 8.19812C19.8148 7.94681 19.0757 7.92163 18.3844 8.12637C17.693 8.33111 17.0868 8.75471 16.6569 9.3335C16.2269 9.91228 15.9964 10.615 16 11.336C16.0004 11.9331 16.161 12.5191 16.4653 13.0328C16.7695 13.5466 17.2061 13.9692 17.7295 14.2565C18.2529 14.5439 18.8438 14.6854 19.4406 14.6663C20.0374 14.6472 20.6181 14.4682 21.122 14.148C20.86 14.926 20.372 15.756 19.568 16.588C19.4142 16.7471 19.3299 16.9608 19.3336 17.1821C19.3374 17.4034 19.4289 17.6142 19.588 17.768C19.7471 17.9218 19.9608 18.0061 20.1821 18.0024C20.4034 17.9986 20.6142 17.9071 20.768 17.748C23.74 14.668 23.354 11.32 22.132 9.524V9.52Z" fill="#F8F9FA"/>
</svg>
