<svg width="32" height="32" viewBox="0 0 32 32" fill="none" xmlns="http://www.w3.org/2000/svg">
<path d="M20.9561 3.29394C20.9947 3.1684 21.0082 3.03648 20.9958 2.90572C20.9834 2.77496 20.9454 2.64791 20.884 2.53184C20.8225 2.41576 20.7388 2.31294 20.6375 2.22922C20.5363 2.14551 20.4196 2.08255 20.2941 2.04394C20.1685 2.00533 20.0366 1.99183 19.9059 2.0042C19.7751 2.01658 19.648 2.05459 19.532 2.11606C19.4159 2.17753 19.3131 2.26126 19.2294 2.36248C19.1456 2.46369 19.0827 2.5804 19.0441 2.70594L11.0441 28.7059C10.9661 28.9595 10.992 29.2336 11.1162 29.468C11.2403 29.7025 11.4525 29.878 11.7061 29.9559C11.9596 30.0339 12.2338 30.008 12.4682 29.8838C12.7026 29.7597 12.8781 29.5475 12.9561 29.2939L20.9561 3.29394V3.29394ZM9.70808 8.29194C9.8012 8.38483 9.87509 8.49518 9.9255 8.61667C9.97592 8.73816 10.0019 8.86841 10.0019 8.99994C10.0019 9.13148 9.97592 9.26172 9.9255 9.38321C9.87509 9.5047 9.8012 9.61505 9.70808 9.70794L3.41408 15.9999L9.70808 22.2919C9.89585 22.4797 10.0013 22.7344 10.0013 22.9999C10.0013 23.2655 9.89585 23.5202 9.70808 23.7079C9.52031 23.8957 9.26563 24.0012 9.00008 24.0012C8.73453 24.0012 8.47985 23.8957 8.29208 23.7079L1.29208 16.7079C1.19895 16.6151 1.12507 16.5047 1.07465 16.3832C1.02424 16.2617 0.998291 16.1315 0.998291 15.9999C0.998291 15.8684 1.02424 15.7382 1.07465 15.6167C1.12507 15.4952 1.19895 15.3848 1.29208 15.2919L8.29208 8.29194C8.38497 8.19882 8.49532 8.12493 8.61681 8.07452C8.7383 8.0241 8.86854 7.99815 9.00008 7.99815C9.13161 7.99815 9.26186 8.0241 9.38335 8.07452C9.50484 8.12493 9.61519 8.19882 9.70808 8.29194V8.29194ZM22.2921 8.29194C22.199 8.38483 22.1251 8.49518 22.0747 8.61667C22.0242 8.73816 21.9983 8.86841 21.9983 8.99994C21.9983 9.13148 22.0242 9.26172 22.0747 9.38321C22.1251 9.5047 22.199 9.61505 22.2921 9.70794L28.5861 15.9999L22.2921 22.2919C22.1991 22.3849 22.1253 22.4953 22.075 22.6168C22.0247 22.7383 21.9988 22.8685 21.9988 22.9999C21.9988 23.1314 22.0247 23.2616 22.075 23.3831C22.1253 23.5046 22.1991 23.615 22.2921 23.7079C22.3851 23.8009 22.4954 23.8747 22.6169 23.925C22.7384 23.9753 22.8686 24.0012 23.0001 24.0012C23.1316 24.0012 23.2618 23.9753 23.3832 23.925C23.5047 23.8747 23.6151 23.8009 23.7081 23.7079L30.7081 16.7079C30.8012 16.6151 30.8751 16.5047 30.9255 16.3832C30.9759 16.2617 31.0019 16.1315 31.0019 15.9999C31.0019 15.8684 30.9759 15.7382 30.9255 15.6167C30.8751 15.4952 30.8012 15.3848 30.7081 15.2919L23.7081 8.29194C23.6152 8.19882 23.5048 8.12493 23.3833 8.07452C23.2619 8.0241 23.1316 7.99815 23.0001 7.99815C22.8685 7.99815 22.7383 8.0241 22.6168 8.07452C22.4953 8.12493 22.385 8.19882 22.2921 8.29194V8.29194Z" fill="#F8F9FA"/>
</svg>
