<svg width="32" height="32" viewBox="0 0 32 32" fill="none" xmlns="http://www.w3.org/2000/svg">
<g clip-path="url(#clip0_2315_32417)">
<path d="M13.9779 7.23612L15.5759 4.68012C15.6209 4.6082 15.6834 4.5469 15.7576 4.50579C15.8317 4.46468 15.9151 4.44312 15.9999 4.44312C16.0848 4.44312 16.1682 4.46468 16.2423 4.50579C16.3165 4.5469 16.379 4.6062 16.4239 4.67812L18.0219 7.23612C18.069 7.31178 18.095 7.39865 18.0972 7.48772C18.0994 7.57679 18.0777 7.66484 18.0345 7.74274C17.9913 7.82065 17.928 7.88559 17.8513 7.93084C17.7745 7.97609 17.687 8.00001 17.5979 8.00012H14.4019C14.3128 8.00001 14.2254 7.97609 14.1486 7.93084C14.0719 7.88559 14.0086 7.82065 13.9654 7.74274C13.9221 7.66484 13.9005 7.57679 13.9027 7.48772C13.9049 7.39865 13.9309 7.31178 13.9779 7.23612Z" fill="#F8F9FA"/>
<path d="M13.9779 24.7661L15.5759 27.3201C15.6209 27.392 15.6834 27.4533 15.7576 27.4944C15.8317 27.5355 15.9151 27.5571 15.9999 27.5571C16.0848 27.5571 16.1682 27.5355 16.2423 27.4944C16.3165 27.4533 16.379 27.394 16.4239 27.3221L18.0219 24.7661C18.0695 24.6904 18.0959 24.6033 18.0984 24.514C18.1009 24.4246 18.0793 24.3362 18.036 24.258C17.9927 24.1798 17.9293 24.1146 17.8522 24.0692C17.7752 24.0239 17.6874 24 17.5979 24.0001H14.4019C14.3125 24 14.2247 24.0239 14.1477 24.0692C14.0706 24.1146 14.0072 24.1798 13.9639 24.258C13.9206 24.3362 13.899 24.4246 13.9015 24.514C13.904 24.6033 13.9304 24.6904 13.9779 24.7661Z" fill="#F8F9FA"/>
<path d="M4.67995 16.4261L7.23395 18.0201V18.0241C7.30965 18.0717 7.39672 18.0981 7.4861 18.1006C7.57547 18.103 7.66387 18.0815 7.74209 18.0382C7.82031 17.9949 7.88549 17.9314 7.93085 17.8544C7.9762 17.7773 8.00006 17.6895 7.99995 17.6001V14.4021C7.99948 14.3132 7.97531 14.226 7.92991 14.1495C7.88452 14.073 7.81955 14.0101 7.74171 13.9671C7.66386 13.9241 7.57596 13.9026 7.48705 13.9049C7.39815 13.9072 7.31147 13.9332 7.23595 13.9801L4.67995 15.5781C4.60804 15.6231 4.54874 15.6856 4.50763 15.7597C4.46652 15.8339 4.44495 15.9173 4.44495 16.0021C4.44495 16.0869 4.46652 16.1703 4.50763 16.2445C4.54874 16.3187 4.60804 16.3812 4.67995 16.4261Z" fill="#F8F9FA"/>
<path d="M24.7659 18.0221L27.3199 16.4241L27.3219 16.4221C27.3939 16.3772 27.4532 16.3147 27.4943 16.2405C27.5354 16.1663 27.5569 16.0829 27.5569 15.9981C27.5569 15.9133 27.5354 15.8299 27.4943 15.7557C27.4532 15.6816 27.3939 15.6191 27.3219 15.5741L24.7659 13.9761C24.6902 13.9286 24.6032 13.9022 24.5138 13.8997C24.4244 13.8972 24.336 13.9187 24.2578 13.962C24.1796 14.0053 24.1144 14.0688 24.069 14.1459C24.0237 14.2229 23.9998 14.3107 23.9999 14.4001V17.5981C23.9998 17.6875 24.0237 17.7753 24.069 17.8524C24.1144 17.9294 24.1796 17.9929 24.2578 18.0362C24.336 18.0795 24.4244 18.101 24.5138 18.0986C24.6032 18.0961 24.6902 18.0697 24.7659 18.0221Z" fill="#F8F9FA"/>
<path fill-rule="evenodd" clip-rule="evenodd" d="M10.8787 0.87868C11.4413 0.31607 12.2044 0 13 0H19C19.7956 0 20.5587 0.31607 21.1213 0.87868C21.6839 1.44129 22 2.20435 22 3V9C22 9.26522 22.1054 9.51957 22.2929 9.70711C22.4804 9.89464 22.7348 10 23 10H29C29.7956 10 30.5587 10.3161 31.1213 10.8787C31.6839 11.4413 32 12.2044 32 13V19C32 19.7956 31.6839 20.5587 31.1213 21.1213C30.5587 21.6839 29.7956 22 29 22H23C22.7348 22 22.4804 22.1054 22.2929 22.2929C22.1054 22.4804 22 22.7348 22 23V29C22 29.7956 21.6839 30.5587 21.1213 31.1213C20.5587 31.6839 19.7956 32 19 32H13C12.2044 32 11.4413 31.6839 10.8787 31.1213C10.3161 30.5587 10 29.7956 10 29V23C10 22.7348 9.89464 22.4804 9.70711 22.2929C9.51957 22.1054 9.26522 22 9 22H3C2.20435 22 1.44129 21.6839 0.87868 21.1213C0.31607 20.5587 0 19.7956 0 19V13C0 12.2044 0.31607 11.4413 0.87868 10.8787C1.44129 10.3161 2.20435 10 3 10H9C9.26522 10 9.51957 9.89464 9.70711 9.70711C9.89464 9.51957 10 9.26522 10 9V3C10 2.20435 10.3161 1.44129 10.8787 0.87868ZM12.2929 2.29289C12.1054 2.48043 12 2.73478 12 3V9C12 9.79565 11.6839 10.5587 11.1213 11.1213C10.5587 11.6839 9.79565 12 9 12H3C2.73478 12 2.48043 12.1054 2.29289 12.2929C2.10536 12.4804 2 12.7348 2 13V19C2 19.2652 2.10536 19.5196 2.29289 19.7071C2.48043 19.8946 2.73478 20 3 20H9C9.79565 20 10.5587 20.3161 11.1213 20.8787C11.6839 21.4413 12 22.2044 12 23V29C12 29.2652 12.1054 29.5196 12.2929 29.7071C12.4804 29.8946 12.7348 30 13 30H19C19.2652 30 19.5196 29.8946 19.7071 29.7071C19.8946 29.5196 20 29.2652 20 29V23C20 22.2044 20.3161 21.4413 20.8787 20.8787C21.4413 20.3161 22.2044 20 23 20H29C29.2652 20 29.5196 19.8946 29.7071 19.7071C29.8946 19.5196 30 19.2652 30 19V13C30 12.7348 29.8946 12.4804 29.7071 12.2929C29.5196 12.1054 29.2652 12 29 12H23C22.2044 12 21.4413 11.6839 20.8787 11.1213C20.3161 10.5587 20 9.79565 20 9V3C20 2.73478 19.8946 2.48043 19.7071 2.29289C19.5196 2.10536 19.2652 2 19 2H13C12.7348 2 12.4804 2.10536 12.2929 2.29289Z" fill="#F8F9FA"/>
</g>
<defs>
<clipPath id="clip0_2315_32417">
<rect width="32" height="32" fill="white"/>
</clipPath>
</defs>
</svg>
