<svg width="32" height="32" viewBox="0 0 32 32" fill="none" xmlns="http://www.w3.org/2000/svg">
<g clip-path="url(#clip0_2315_32462)">
<path d="M17 2C14.6131 2 12.3239 2.94821 10.636 4.63604C8.94821 6.32387 8 8.61305 8 11V25.094C7.99991 26.2434 8.40343 27.3564 9.14014 28.2387C9.87684 29.1211 10.9 29.7167 12.031 29.9217C13.162 30.1267 14.3291 29.9281 15.3286 29.3605C16.3281 28.7929 17.0966 27.8923 17.5 26.816L18.524 24.09C18.9175 23.0399 19.4677 22.0554 20.156 21.17L24.172 16.008C25.1693 14.7253 25.7866 13.1885 25.9537 11.5723C26.1207 9.95615 25.8307 8.32554 25.1168 6.86602C24.4029 5.40649 23.2936 4.17665 21.9153 3.31641C20.5369 2.45617 18.9448 2.00007 17.32 2H17ZM6 11C6 8.08262 7.15893 5.28473 9.22183 3.22183C11.2847 1.15893 14.0826 0 17 0L17.32 0C19.3191 0.000181662 21.2781 0.561467 22.974 1.62C24.6699 2.67853 26.0347 4.1918 26.913 5.98766C27.7913 7.78351 28.148 9.78984 27.9424 11.7784C27.7368 13.7669 26.9772 15.6578 25.75 17.236L21.734 22.398C21.169 23.1238 20.7173 23.9309 20.394 24.792L19.374 27.518C18.8067 29.0339 17.725 30.3025 16.3178 31.1021C14.9105 31.9017 13.267 32.1817 11.6744 31.893C10.0817 31.6043 8.64106 30.7654 7.60394 29.5228C6.56682 28.2801 5.99913 26.7126 6 25.094V11ZM17 8C16.2044 8 15.4413 8.31607 14.8787 8.87868C14.3161 9.44129 14 10.2044 14 11V16.39C14.224 16.27 14.446 16.144 14.664 16.006C15.318 15.59 15.818 15.126 16.104 14.552C16.2228 14.3146 16.4311 14.1342 16.6829 14.0504C16.9348 13.9665 17.2096 13.9862 17.447 14.105C17.6844 14.2238 17.8648 14.4321 17.9486 14.6839C18.0325 14.9358 18.0128 15.2106 17.894 15.448C17.382 16.474 16.548 17.178 15.736 17.694C15.1758 18.0378 14.5961 18.349 14 18.626V23C14 23.2652 13.8946 23.5196 13.7071 23.7071C13.5196 23.8946 13.2652 24 13 24C12.7348 24 12.4804 23.8946 12.2929 23.7071C12.1054 23.5196 12 23.2652 12 23V11C12 9.67392 12.5268 8.40215 13.4645 7.46447C14.4021 6.52678 15.6739 6 17 6C18.3261 6 19.5979 6.52678 20.5355 7.46447C21.4732 8.40215 22 9.67392 22 11V12C22 12.2652 21.8946 12.5196 21.7071 12.7071C21.5196 12.8946 21.2652 13 21 13C20.7348 13 20.4804 12.8946 20.2929 12.7071C20.1054 12.5196 20 12.2652 20 12V11C20 10.2044 19.6839 9.44129 19.1213 8.87868C18.5587 8.31607 17.7956 8 17 8Z" fill="#F8F9FA"/>
</g>
<defs>
<clipPath id="clip0_2315_32462">
<rect width="32" height="32" fill="white"/>
</clipPath>
</defs>
</svg>
