<svg width="32" height="38" viewBox="0 0 32 38" fill="none" xmlns="http://www.w3.org/2000/svg">
<path d="M12.3841 8.55997C11.4681 7.20597 10.5301 6.06397 9.68411 5.27397C9.26433 4.8623 8.78578 4.51519 8.26411 4.24397C7.83011 4.03597 7.14411 3.83397 6.50011 4.20397C5.76611 4.62997 5.64611 5.46397 5.64011 5.99597C5.63411 6.60397 5.76811 7.32397 5.98611 8.08397C6.37811 9.45797 7.09811 11.14 8.05611 12.888L1.50411 19.44C0.950113 19.994 0.966113 20.752 1.06811 21.276C1.17811 21.842 1.44211 22.462 1.78811 23.082C2.48411 24.336 3.62811 25.804 5.04011 27.218C6.45411 28.632 7.92211 29.774 9.17611 30.47C9.79611 30.816 10.4161 31.08 10.9821 31.19C11.5061 31.29 12.2621 31.308 12.8181 30.754L24.0481 19.524C24.2841 20.038 24.2321 20.548 24.1481 21.402C24.0881 21.986 24.0121 22.732 24.0021 23.754V24H24.0081C24.05 24.4997 24.2782 24.9655 24.6473 25.3049C25.0164 25.6444 25.4996 25.8328 26.0011 25.8328C26.5026 25.8328 26.9858 25.6444 27.3549 25.3049C27.7241 24.9655 27.9522 24.4997 27.9941 24H28.0001V23.886C28.002 23.8079 27.9993 23.7298 27.9921 23.652C27.8821 21.152 26.5921 18.176 24.2721 16.664C24.1477 16.367 24.0068 16.0772 23.8501 15.796C23.1521 14.544 22.0101 13.076 20.5961 11.662C19.1821 10.248 17.7141 9.10397 16.4601 8.40797C15.8401 8.06397 15.2201 7.79997 14.6541 7.68797C14.1301 7.58797 13.3741 7.57197 12.8181 8.12597L12.3841 8.55797V8.55997ZM8.32011 6.73397C9.08211 7.44597 10.0081 8.57797 10.9421 9.99797L9.53411 11.408C8.77011 9.95397 8.21411 8.60397 7.90811 7.53197C7.77404 7.09368 7.68623 6.64256 7.64611 6.18597C7.82811 6.30797 8.05411 6.48597 8.32011 6.73397ZM9.10811 14.664C10.1881 16.368 11.3221 17.798 12.3221 18.73C12.4182 18.8195 12.5311 18.8893 12.6542 18.9352C12.7772 18.9812 12.9082 19.0025 13.0395 18.9978C13.1708 18.9932 13.2999 18.9627 13.4194 18.9082C13.5389 18.8536 13.6466 18.7761 13.7361 18.68C13.8257 18.5838 13.8954 18.471 13.9414 18.3479C13.9873 18.2249 14.0086 18.0939 14.004 17.9626C13.9993 17.8313 13.9689 17.7022 13.9143 17.5827C13.8598 17.4632 13.7822 17.3555 13.6861 17.266C12.7801 16.422 11.6521 14.994 10.5581 13.212L12.7341 11.036C12.8421 11.276 12.9641 11.522 13.1001 11.766C13.7981 13.02 14.9401 14.488 16.3541 15.902C17.7661 17.316 19.2341 18.458 20.4901 19.154C20.7341 19.29 20.9781 19.414 21.2201 19.52L11.4981 29.244C11.4524 29.24 11.407 29.2334 11.3621 29.224C11.0881 29.17 10.6781 29.016 10.1461 28.72C9.09811 28.136 7.77411 27.12 6.45411 25.8C5.13411 24.48 4.11811 23.16 3.53411 22.108C3.24011 21.578 3.08411 21.168 3.03211 20.894C3.02273 20.8491 3.01605 20.8037 3.01211 20.758L9.10811 14.664V14.664ZM14.8481 10.794C14.6411 10.4416 14.4792 10.0647 14.3661 9.67197C14.6361 9.73797 15.0141 9.89197 15.4901 10.154C16.5381 10.738 17.8621 11.754 19.1821 13.074C20.0821 13.974 20.8421 14.876 21.4181 15.694C20.7023 15.6449 19.9832 15.7063 19.2861 15.876C18.7586 15.4367 18.2514 14.9735 17.7661 14.488C16.4461 13.168 15.4321 11.844 14.8501 10.794H14.8481Z" fill="#212529"/>
</svg>
