<svg width="32" height="32" viewBox="0 0 32 32" fill="none" xmlns="http://www.w3.org/2000/svg">
<g clip-path="url(#clip0_2315_32449)">
<path d="M16 10C16.394 10 16.7841 9.92241 17.1481 9.77165C17.512 9.62088 17.8428 9.3999 18.1213 9.12133C18.3999 8.84275 18.6209 8.51203 18.7716 8.14806C18.9224 7.78408 19 7.39397 19 7.00001C19 6.60604 18.9224 6.21593 18.7716 5.85196C18.6209 5.48798 18.3999 5.15726 18.1213 4.87869C17.8428 4.60011 17.512 4.37913 17.1481 4.22837C16.7841 4.0776 16.394 4.00001 16 4.00001C15.2044 4.00001 14.4413 4.31608 13.8787 4.87869C13.3161 5.4413 13 6.20436 13 7.00001C13 7.79566 13.3161 8.55872 13.8787 9.12133C14.4413 9.68394 15.2044 10 16 10ZM24 16C24.7957 16 25.5587 15.6839 26.1213 15.1213C26.6839 14.5587 27 13.7957 27 13C27 12.2044 26.6839 11.4413 26.1213 10.8787C25.5587 10.3161 24.7957 10 24 10C23.2044 10 22.4413 10.3161 21.8787 10.8787C21.3161 11.4413 21 12.2044 21 13C21 13.7957 21.3161 14.5587 21.8787 15.1213C22.4413 15.6839 23.2044 16 24 16ZM11 14C11 14.7957 10.6839 15.5587 10.1213 16.1213C9.55872 16.6839 8.79566 17 8.00001 17C7.20436 17 6.4413 16.6839 5.87869 16.1213C5.31608 15.5587 5.00001 14.7957 5.00001 14C5.00001 13.2044 5.31608 12.4413 5.87869 11.8787C6.4413 11.3161 7.20436 11 8.00001 11C8.79566 11 9.55872 11.3161 10.1213 11.8787C10.6839 12.4413 11 13.2044 11 14ZM12 26C12.7957 26 13.5587 25.6839 14.1213 25.1213C14.6839 24.5587 15 23.7957 15 23C15 22.2044 14.6839 21.4413 14.1213 20.8787C13.5587 20.3161 12.7957 20 12 20C11.2044 20 10.4413 20.3161 9.87869 20.8787C9.31608 21.4413 9.00001 22.2044 9.00001 23C9.00001 23.7957 9.31608 24.5587 9.87869 25.1213C10.4413 25.6839 11.2044 26 12 26Z" fill="#F8F9FA"/>
<path d="M32 16C32 22.3 28.268 21.17 24.866 20.14C22.84 19.526 20.93 18.946 20 20C18.794 21.366 19.05 23.638 19.298 25.84C19.652 28.99 19.992 32 16 32C12.8355 32 9.74207 31.0616 7.11088 29.3035C4.4797 27.5454 2.42894 25.0466 1.21793 22.1229C0.0069325 19.1993 -0.309921 15.9823 0.307443 12.8786C0.924806 9.77487 2.44866 6.92394 4.6863 4.6863C6.92394 2.44866 9.77487 0.924806 12.8786 0.307443C15.9823 -0.309921 19.1993 0.0069325 22.1229 1.21793C25.0466 2.42894 27.5454 4.4797 29.3035 7.11088C31.0616 9.74207 32 12.8355 32 16ZM16 30C17.222 30 17.308 29.658 17.31 29.648C17.466 29.356 17.558 28.72 17.45 27.41C17.422 27.074 17.376 26.67 17.328 26.228C17.224 25.3 17.104 24.218 17.092 23.304C17.072 21.89 17.258 20.084 18.5 18.676C19.238 17.842 20.19 17.52 21.044 17.44C21.852 17.364 22.668 17.492 23.364 17.648C24.05 17.802 24.768 18.02 25.414 18.216L25.47 18.232C26.162 18.442 26.786 18.63 27.376 18.764C28.682 19.06 29.184 18.93 29.358 18.812C29.434 18.76 30 18.322 30 16C30 13.2311 29.1789 10.5243 27.6406 8.22202C26.1022 5.91974 23.9157 4.12532 21.3576 3.06569C18.7994 2.00607 15.9845 1.72882 13.2687 2.26901C10.553 2.80921 8.05845 4.14258 6.10051 6.10051C4.14258 8.05845 2.80921 10.553 2.26901 13.2687C1.72882 15.9845 2.00607 18.7994 3.06569 21.3576C4.12532 23.9157 5.91974 26.1022 8.22202 27.6406C10.5243 29.1789 13.2311 30 16 30Z" fill="#F8F9FA"/>
</g>
<defs>
<clipPath id="clip0_2315_32449">
<rect width="32" height="32" fill="white"/>
</clipPath>
</defs>
</svg>
